<?xml version="1.0" encoding="UTF-8" standalone="no"?>
<svg
   xmlns:dc="http://purl.org/dc/elements/1.1/"
   xmlns:cc="http://creativecommons.org/ns#"
   xmlns:rdf="http://www.w3.org/1999/02/22-rdf-syntax-ns#"
   xmlns:svg="http://www.w3.org/2000/svg"
   xmlns="http://www.w3.org/2000/svg"
   xmlns:sodipodi="http://sodipodi.sourceforge.net/DTD/sodipodi-0.dtd"
   xmlns:inkscape="http://www.inkscape.org/namespaces/inkscape"
   width="210mm"
   height="297mm"
   viewBox="0 0 210 297"
   version="1.1"
   id="svg2308"
   inkscape:version="1.0.1 (3bc2e813f5, 2020-09-07)"
   sodipodi:docname="logo2.svg">
  <defs
     id="defs2302" />
  <sodipodi:namedview
     id="base"
     pagecolor="#ffffff"
     bordercolor="#666666"
     borderopacity="1.0"
     inkscape:pageopacity="0.0"
     inkscape:pageshadow="2"
     inkscape:zoom="0.84529565"
     inkscape:cx="55.59029"
     inkscape:cy="537.74091"
     inkscape:document-units="mm"
     inkscape:current-layer="layer1"
     inkscape:document-rotation="0"
     showgrid="false"
     inkscape:window-width="1280"
     inkscape:window-height="736"
     inkscape:window-x="1366"
     inkscape:window-y="328"
     inkscape:window-maximized="1"
     showguides="true"
     inkscape:guide-bbox="true">
    <sodipodi:guide
       position="202.51628,168.85036"
       orientation="1,0"
       id="guide14" />
    <sodipodi:guide
       position="74.781276,152.85476"
       orientation="1,0"
       id="guide16" />
  </sodipodi:namedview>
  <metadata
     id="metadata2305">
    <rdf:RDF>
      <cc:Work
         rdf:about="">
        <dc:format>image/svg+xml</dc:format>
        <dc:type
           rdf:resource="http://purl.org/dc/dcmitype/StillImage" />
        <dc:title />
      </cc:Work>
    </rdf:RDF>
  </metadata>
  <g
     inkscape:label="Layer 1"
     inkscape:groupmode="layer"
     id="layer1">
    <rect
       style="font-style:normal;font-weight:normal;font-size:10.5833px;line-height:1.25;font-family:sans-serif;letter-spacing:0.015875px;fill:#3670a0;fill-opacity:1;stroke:#000080;stroke-width:0;stroke-miterlimit:4;stroke-dasharray:none;paint-order:markers stroke fill"
       id="rect1763-1"
       width="199.94298"
       height="43.394299"
       x="5.418714"
       y="108.6799"
       ry="5.3787246"
       inkscape:export-xdpi="300.05954"
       inkscape:export-ydpi="300.05954" />
    <path
       id="path1749-08"
       style="font-style:normal;font-variant:normal;font-weight:normal;font-stretch:normal;font-size:10.5833px;line-height:1.25;font-family:'Komika Axis';-inkscape-font-specification:'Komika Axis';text-align:center;letter-spacing:0.015875px;text-anchor:middle;fill:#ffffff;fill-opacity:1;stroke:none;stroke-width:0.549527"
       d="m 122.54933,117.2837 -1.59556,19.13061 q -0.0336,0.77674 0.13437,1.32334 0.15117,0.54659 0.43669,0.94933 0.3527,0.51781 0.60462,0.86304 0.26873,0.31644 0.55425,0.63289 0.25193,0.28766 0.58783,0.4315 0.35271,0.17264 1.02452,-0.11515 1.00772,-0.31645 2.1162,-0.69042 1.1085,-0.37397 2.1834,-0.7192 0.45347,-0.1438 0.53745,-0.34521 0.084,-0.23014 0,-0.80549 -0.13437,-0.51783 -0.25193,-1.00688 -0.10077,-0.51783 -0.30231,-1.09319 -0.18476,-0.51782 -0.45348,-0.69042 -0.25193,-0.17264 -0.7222,-0.11515 -0.83976,0.0863 -1.56196,0.23015 -0.7054,0.1438 -1.49479,0.37399 0.13437,-0.80551 0.25193,-1.61102 0.11756,-0.83424 0.25193,-1.75483 0.97413,-0.3452 2.01545,-0.63288 1.05809,-0.28768 2.06582,-0.60412 0.47026,-0.17264 0.57103,-0.40274 0.11757,-0.23017 -0.0168,-0.89183 -0.084,-0.57536 -0.20154,-1.12195 -0.10077,-0.57535 -0.30231,-1.15069 -0.18475,-0.57537 -0.45348,-0.74798 -0.26873,-0.17264 -0.73899,-0.1438 -0.57104,0.0288 -1.0749,0.0863 -0.50386,0.0575 -1.00772,0.17264 0.26872,-1.52469 0.48706,-2.90553 0.21834,-1.40964 0.47028,-2.70418 1.19246,-0.28769 2.26736,-0.48907 1.0749,-0.20137 2.08262,-0.40274 0.48706,-0.11515 0.62142,-0.37397 0.13438,-0.25893 0.0672,-1.00688 -0.084,-0.66166 -0.16795,-1.20825 -0.084,-0.57538 -0.30231,-1.26579 -0.26873,-1.29457 -1.22607,-1.26579 -1.00771,0.0575 -2.03223,0.28767 -1.00771,0.20137 -1.98184,0.48907 -0.95733,0.28766 -1.84749,0.63289 -0.87336,0.3452 -1.59555,0.66165 z m -6.28983,14.24008 q 0.73899,-1.20824 1.56196,-2.5891 0.82297,-1.38087 1.57876,-2.76171 0.77259,-1.40962 1.4108,-2.73295 0.65503,-1.35208 1.04132,-2.44525 0.31911,-0.8918 0.3527,-1.49594 0.0504,-0.60412 -0.084,-1.23702 -0.21834,-0.77671 -0.47027,-1.43839 -0.23513,-0.66166 -0.60464,-1.20825 -0.3527,-0.51783 -0.63821,-0.51783 -0.25193,0 -0.53745,0.63289 -0.43669,0.92058 -1.12529,2.24392 -0.67181,1.3233 -1.46119,2.79047 -0.77258,1.46714 -1.59556,2.99187 -0.82296,1.4959 -1.52837,2.81923 0.28552,-2.24389 0.53745,-4.11381 0.25193,-1.89867 0.50386,-3.36582 0.0672,-0.37399 0.084,-0.6329 0.0168,-0.28768 -0.0504,-0.51783 -0.0672,-0.23013 -0.21834,-0.4315 -0.15116,-0.23018 -0.40308,-0.51784 -0.45348,-0.51781 -1.07491,-0.97811 -0.60462,-0.46028 -1.14208,-0.69043 -0.48706,-0.25889 -0.75579,-0.0575 -0.26872,0.17263 -0.40308,0.97812 -0.16795,1.35209 -0.3527,3.19323 -0.18475,1.84114 -0.36951,3.91241 -0.18474,2.04253 -0.35269,4.2001 -0.16796,2.12882 -0.30232,4.08504 -0.13437,1.95622 -0.21834,3.59598 -0.084,1.611 -0.10077,2.61788 -0.0336,1.0644 0.30231,1.58223 0.33591,0.51781 1.0917,0.86303 0.3695,0.17264 0.67181,0.31645 0.31911,0.17264 0.53745,0.17264 0.21834,0.0288 0.3359,-0.14382 0.11756,-0.1438 0.11756,-0.57536 0.13438,-1.29454 0.30233,-2.87678 0.16795,-1.58223 0.38629,-3.4809 0.3527,0.86303 0.75578,1.75482 0.41989,0.86305 0.78939,1.63979 0.38629,0.77673 0.7054,1.38084 0.31911,0.60413 0.50386,0.94934 0.45348,0.83427 0.90695,0.94933 0.45347,0.11498 0.89014,-0.0863 0.28553,-0.0575 0.57105,-0.20137 0.30231,-0.1438 0.52065,-0.3452 0.3695,-0.28768 0.41988,-0.57535 0.0672,-0.31645 -0.21834,-0.80551 -0.26872,-0.51781 -0.62142,-1.29455 -0.3527,-0.77673 -0.739,-1.69731 -0.38629,-0.92058 -0.78937,-1.89867 -0.38629,-1.00687 -0.7222,-1.95622 z m -10.6566,3.27954 q 0.0504,1.17948 0.10076,2.18635 0.0504,0.97811 0.11758,1.81238 0.0672,0.80549 0.21833,1.12194 0.16796,0.31643 0.57104,0.51782 0.38629,0.23014 0.75579,0.25891 0.3695,0.0575 0.80618,0.0575 0.43667,0 0.55424,-0.20136 0.13437,-0.20137 0.13437,-0.71919 -0.0168,-2.47403 -0.0168,-5.35081 0.0168,-2.90555 0.0504,-5.78234 0.0336,-2.87677 0.10077,-5.52343 0.0672,-2.64663 0.16796,-4.68915 0.0504,-0.83427 -0.10077,-1.3521 -0.13438,-0.51782 -0.65503,-0.83427 -0.38629,-0.17264 -0.77258,-0.37397 -0.3695,-0.20137 -0.82297,-0.37399 -0.43668,-0.17264 -0.97412,-0.28768 -0.53745,-0.1438 -1.22607,-0.20136 -0.78937,-0.11497 -1.19247,0.37398 -0.40308,0.48905 -0.65501,1.26579 -0.70541,2.15759 -1.49478,4.94806 -0.77259,2.76172 -1.528375,5.60973 -0.739,2.84802 -1.37721,5.52343 -0.655021,2.67539 -1.0581,4.66039 -0.100769,0.60412 -0.084,0.97811 0,0.34521 0.084,0.57536 0.084,0.23014 0.235129,0.40274 0.151161,0.14381 0.352701,0.37399 0.268722,0.23014 0.537451,0.4315 0.251928,0.17263 0.47026,0.31645 0.38629,0.23015 0.571039,0.1438 0.201551,-0.0863 0.33591,-0.57535 0.235145,-0.92057 0.487065,-1.86991 0.25193,-0.9781 0.58784,-2.10005 0.95733,-0.43153 2.20018,-0.71919 1.25965,-0.31645 2.5193,-0.60414 z m -3.2079,-4.0275 q 0.78937,-2.73294 1.56196,-5.26451 0.78938,-2.56036 1.4612,-4.66039 -0.0336,2.30142 -0.0168,4.66039 0.0168,2.33019 0.0504,4.68916 -0.77259,0.0864 -1.54517,0.23015 -0.7558,0.1438 -1.51158,0.34522 z m -9.027444,0.0575 q -0.184751,-1.46716 -0.3695,-3.04939 -0.184752,-1.611 -0.352702,-3.10693 -0.167948,-1.52471 -0.30231,-2.81925 -0.134367,-1.29454 -0.218339,-2.12881 -0.10077,-1.09319 -0.319107,-1.63977 -0.218344,-0.57536 -0.738994,-0.94935 -0.63822,-0.51781 -1.22605,-0.83426 -0.587828,-0.31644 -1.209259,-0.63289 -0.52065,-0.23015 -0.822959,0 -0.302318,0.20136 -0.419881,1.06439 -0.184749,1.49595 -0.386289,3.42341 -0.184752,1.92742 -0.369503,3.99872 -0.184739,2.07128 -0.335898,4.17133 -0.167948,2.07129 -0.285519,3.91243 -0.134369,1.81236 -0.201542,3.25076 -0.084,1.4384 -0.117559,2.21513 -0.0336,0.74796 0.100771,1.17948 0.117559,0.40275 0.48706,0.7192 0.386291,0.40274 0.78938,0.6041 0.419871,0.17264 0.822962,0.34523 0.436677,0.20136 0.587828,0.0575 0.151159,-0.11514 0.21834,-0.60413 0.084,-1.03563 0.21834,-2.41648 0.15115,-1.40963 0.319111,-3.02063 0.184741,-1.63976 0.369488,-3.42338 0.201541,-1.7836 0.386292,-3.56722 0.21834,1.49593 0.47027,2.99188 0.251928,1.46716 0.503848,2.84801 0.251932,1.35207 0.487069,2.53156 0.25192,1.1795 0.487061,2.07129 0.30231,1.23702 1.041299,1.72607 0.806173,0.48905 1.57875,0.74795 0.906942,0.34523 1.007713,-0.74795 0.268727,-2.01374 0.63822,-4.6604 0.386288,-2.6754 0.789379,-5.46589 0.41988,-2.79046 0.83976,-5.49464 0.41988,-2.70419 0.806168,-4.83299 0.134362,-0.74796 0.0672,-1.26579 -0.0504,-0.54659 -0.537451,-1.06443 -0.28552,-0.31643 -0.50386,-0.51781 -0.21832,-0.20137 -0.41988,-0.34521 -0.184739,-0.14381 -0.386292,-0.23016 -0.201539,-0.0863 -0.453459,-0.20136 -0.537438,-0.23015 -0.822959,-0.0289 -0.268739,0.20137 -0.403091,1.03564 -0.487067,3.07818 -0.990919,6.73167 -0.48707,3.65353 -0.82296,7.42212 z m -18.096851,3.68229 q -0.319099,0.31644 -0.319099,0.86302 0.0336,0.51783 0.755791,1.58223 1.360408,2.15761 2.636838,3.0494 1.27644,0.86303 2.620053,0.80549 1.007716,-0.0288 1.729908,-0.4315 0.722198,-0.40277 1.226051,-0.97812 0.50387,-0.60411 0.80617,-1.29454 0.302309,-0.69043 0.470269,-1.29455 0.26872,-0.83429 0.167951,-1.55348 -0.084,-0.74795 -0.43668,-1.40963 -0.335892,-0.69041 -0.873343,-1.3233 -0.520649,-0.63289 -1.125289,-1.26578 -0.587828,-0.66168 -1.19246,-1.35209 -0.58783,-0.69044 -1.074881,-1.46717 -0.38629,-0.57536 -0.487057,-1.32333 -0.10077,-0.74795 -0.0168,-1.52469 0.084,-0.77673 0.319101,-1.55347 0.251921,-0.77672 0.554238,-1.43839 0.319113,-0.66166 0.655012,-1.17947 0.33592,-0.51782 0.604631,-0.77672 0.319119,-0.37399 0.453469,-0.31645 0.134379,0.0575 0.151159,0.43151 0.0336,0.37399 -0.0336,0.97809 -0.0672,0.57537 -0.16795,1.23702 -0.084,0.6329 -0.184749,1.29456 -0.084,0.63289 -0.100759,1.12194 -0.167961,2.38774 2.11618,3.76859 0.386288,0.2589 0.60463,0.11515 0.218341,-0.14381 0.403081,-0.71919 0.184747,-0.6329 0.369498,-1.49593 0.184752,-0.86304 0.335903,-1.78359 0.151158,-0.94934 0.268729,-1.86993 0.117558,-0.92057 0.167948,-1.6973 0,-0.43151 -0.0168,-0.8918 0,-0.48905 -0.084,-1.00686 -0.0672,-0.51783 -0.251928,-1.03564 -0.167953,-0.5466 -0.503853,-1.06443 -0.503858,-0.83426 -1.259648,-1.49593 -0.755769,-0.66166 -1.511569,-1.12194 -0.503853,-0.2589 -0.974113,-0.28766 -0.453468,-0.0575 -0.856559,0.0575 -0.386278,0.11516 -0.705399,0.37397 -0.319099,0.23015 -0.537441,0.48906 -0.604639,0.63289 -1.19247,1.55345 -0.587828,0.92059 -1.074889,1.985 -0.487051,1.06441 -0.856562,2.18635 -0.352687,1.12194 -0.503846,2.10004 -0.218334,1.15073 -0.201553,2.21514 0.0168,1.06442 0.218338,2.01374 0.201542,0.92056 0.554242,1.72606 0.36951,0.77675 0.822971,1.40964 0.41988,0.60413 0.923729,1.17948 0.520661,0.57535 1.02451,1.12195 0.520659,0.54658 0.974132,1.06441 0.47026,0.48905 0.772577,0.92055 0.319101,0.40275 0.419871,0.74798 0.11757,0.34522 -0.0672,0.54658 -0.470262,0.63289 -1.52836,0.20139 -1.041311,-0.43154 -2.452113,-1.89869 -0.25192,-0.28769 -0.571029,-0.43153 -0.30231,-0.17264 -0.63822,-0.20137 -0.35271,-0.0575 -0.688598,0.0575 -0.335902,0.0863 -0.63822,0.28768 z"
       inkscape:export-xdpi="300.05954"
       inkscape:export-ydpi="300.05954" />
    <path
       id="path1725-5"
       style="font-style:normal;font-variant:normal;font-weight:normal;font-stretch:normal;font-size:10.5833px;line-height:1.25;font-family:'Komika Axis';-inkscape-font-specification:'Komika Axis';text-align:center;letter-spacing:0.015875px;text-anchor:middle;fill:#ffffff;fill-opacity:1;stroke:none;stroke-width:0.508667"
       d="m 201.58237,119.8745 q 0.44694,-0.0576 0.51903,-0.28713 0.0866,-0.25845 0,-0.91887 -0.10089,-0.74656 -0.28834,-1.52184 -0.18743,-0.77529 -0.47579,-1.43571 -0.14417,-0.37329 -0.34602,-0.51685 -0.18743,-0.17238 -0.63437,-0.17238 -0.85062,0.0573 -1.93193,0.22968 -1.06691,0.14355 -2.19146,0.37328 -1.11015,0.22969 -2.19147,0.51685 -1.06689,0.28713 -1.91752,0.63173 -0.27394,0.14355 -0.36044,0.37327 -0.0866,0.20093 0.0866,0.86143 0.15859,0.6317 0.41811,1.55055 0.2451,0.91886 0.54786,1.52186 0.28835,0.60296 0.51903,0.74656 0.23068,0.1149 0.59111,-0.0576 0.25952,-0.14355 0.6488,-0.22968 0.38927,-0.1149 0.80738,-0.25843 -0.21626,1.95256 -0.43253,4.24969 -0.21626,2.26838 -0.40368,4.50809 -0.17303,2.23971 -0.30278,4.24967 -0.12975,2.01 -0.17301,3.38826 -0.0577,0.54558 0.0145,0.94755 0.0721,0.37329 0.23068,0.66043 0.17301,0.28716 0.41811,0.48815 0.2451,0.20093 0.54786,0.37328 0.30277,0.17239 0.54786,0.31586 0.2451,0.14369 0.43253,0.14369 0.18742,0.0288 0.28836,-0.1149 0.11533,-0.1149 0.14416,-0.51685 0.20186,-2.09612 0.46136,-4.50812 0.27393,-2.41196 0.57671,-4.9388 0.30276,-2.55557 0.61995,-5.13982 0.3316,-2.58427 0.63437,-4.99625 0.70645,-0.14369 1.36966,-0.25842 0.6632,-0.1437 1.22548,-0.25843 z m -11.69977,14.1273 q -1.36966,-0.77528 -2.22029,0.94755 -1.18223,2.412 -1.75894,2.03874 -0.30276,-0.17241 -0.46135,-0.9763 -0.1586,-0.80399 -0.18743,-1.95257 -0.0288,-1.17725 0.0577,-2.58423 0.10088,-1.43573 0.28835,-2.87144 0.20184,-1.37826 0.54786,-2.98623 0.36044,-1.60801 0.76413,-2.92886 0.40368,-1.34956 0.79296,-2.18223 0.38927,-0.83271 0.67762,-0.66045 0.28836,0.22969 0.34602,0.97627 0.0577,0.74656 0.0432,1.66543 0,0.51684 0.0432,1.11984 0.0577,0.71785 0.18743,1.26343 0.12976,0.54555 0.34602,0.97629 0.21626,0.40197 0.54786,0.71784 0.3316,0.28713 0.79296,0.45942 0.2451,0.0861 0.38928,0.0576 0.14417,-0.0288 0.21626,-0.14355 0.0866,-0.1149 0.12976,-0.31587 0.0432,-0.2009 0.0865,-0.4307 0.0866,-0.51685 0.1586,-1.14858 0.0721,-0.66042 0.11534,-1.34956 0.0432,-0.71786 0.0577,-1.4357 0.0288,-0.71787 0.0145,-1.37828 -0.0145,-0.57427 -0.0577,-1.06239 -0.0432,-0.51685 -0.15859,-0.97629 -0.10088,-0.45942 -0.28835,-0.89013 -0.17301,-0.45944 -0.44694,-0.91887 -0.28835,-0.37329 -0.64879,-0.71784 -0.36043,-0.37329 -0.76413,-0.66042 -0.40368,-0.31587 -0.83621,-0.51685 -0.43252,-0.22969 -0.83622,-0.31585 -0.54786,-0.0859 -1.16781,0.22968 -0.61995,0.31585 -1.22549,1.34956 -0.7497,1.29213 -1.34082,3.01498 -0.5767,1.69412 -0.99481,3.61795 -0.41811,1.92384 -0.64878,3.96255 -0.2451,2.00997 -0.28836,3.93383 -0.0432,1.89513 0.11533,3.58925 0.14418,1.6654 0.51903,2.90013 0.21627,0.804 0.60554,1.40698 0.38928,0.603 0.77855,0.91884 0.43252,0.28712 0.98038,0.60298 0.54787,0.34459 1.22549,0.43071 0.31718,0.0576 0.64879,0 0.34602,-0.0576 0.64879,-0.20091 0.31718,-0.1437 0.59111,-0.37328 0.28835,-0.22969 0.4902,-0.48812 0.40368,-0.57427 0.80737,-1.43571 0.40369,-0.86142 0.6632,-1.89512 0.2451,-0.89015 0.21627,-1.49315 -0.0145,-0.60299 -0.56229,-0.89013 z m -14.58328,-16.88386 -1.36966,19.09484 q -0.0289,0.77531 0.11533,1.32085 0.12976,0.54558 0.37486,0.94756 0.30276,0.51686 0.51902,0.86144 0.23068,0.31585 0.47578,0.63168 0.21626,0.28715 0.50462,0.43071 0.30276,0.1724 0.87947,-0.1149 0.86504,-0.31582 1.8166,-0.6891 0.95155,-0.37328 1.87427,-0.71787 0.38928,-0.14355 0.46137,-0.34455 0.0721,-0.2297 0,-0.80399 -0.11534,-0.51685 -0.21627,-1.00501 -0.0866,-0.51686 -0.25951,-1.09113 -0.1586,-0.51686 -0.38927,-0.68916 -0.21627,-0.17238 -0.61995,-0.1149 -0.72088,0.0861 -1.34083,0.2297 -0.60554,0.14355 -1.28316,0.37329 0.11533,-0.804 0.21627,-1.60799 0.10088,-0.8327 0.21625,-1.75154 0.83621,-0.34458 1.73011,-0.63173 0.9083,-0.28713 1.77335,-0.60298 0.40368,-0.17239 0.49019,-0.40199 0.10089,-0.22969 -0.0145,-0.89014 -0.0721,-0.5743 -0.17302,-1.11985 -0.0865,-0.57427 -0.2595,-1.14857 -0.1586,-0.57427 -0.38928,-0.74657 -0.23067,-0.17238 -0.63437,-0.14355 -0.4902,0.0288 -0.92271,0.0861 -0.43253,0.0576 -0.86505,0.17239 0.23067,-1.52184 0.41809,-2.90011 0.18744,-1.407 0.4037,-2.69912 1.02365,-0.28713 1.94636,-0.48815 0.92273,-0.20091 1.78777,-0.40198 0.41811,-0.1149 0.53344,-0.37328 0.11533,-0.25845 0.0577,-1.005 -0.0721,-0.66043 -0.14418,-1.206 -0.0721,-0.5743 -0.25951,-1.26343 -0.23068,-1.29211 -1.05248,-1.26341 -0.86504,0.0576 -1.74451,0.28713 -0.86505,0.20092 -1.70127,0.48815 -0.8218,0.28713 -1.58593,0.63169 -0.7497,0.34458 -1.36965,0.66043 z m -7.66289,23.28708 q 1.08131,0.48815 1.77335,0.20092 0.70646,-0.25842 1.21108,-0.8614 0.63436,-0.80399 1.18223,-2.58426 0.54787,-1.78029 1.00923,-4.42199 0.47577,-2.64167 0.87947,-6.11608 0.40368,-3.47441 0.76412,-7.69536 0.0432,-0.37329 0.0432,-0.63171 0.0145,-0.28713 -0.0432,-0.51684 -0.0432,-0.2297 -0.15859,-0.43072 -0.11534,-0.22968 -0.3316,-0.51686 -0.41811,-0.51684 -0.95156,-0.91885 -0.51903,-0.40199 -0.95156,-0.6317 -0.44694,-0.22969 -0.69204,-0.0288 -0.23067,0.17239 -0.31718,1.03371 -0.12976,1.80897 -0.31719,4.04867 -0.17301,2.23968 -0.38927,4.56555 -0.21626,2.29712 -0.46135,4.50808 -0.2451,2.18229 -0.51903,3.90514 -0.27393,1.69411 -0.56229,2.72782 -0.28835,1.0337 -0.59111,1.00499 -0.34602,-0.0859 -0.43253,-0.71785 -0.0866,-0.66043 -0.14418,-2.09613 -0.0432,-2.23968 -1.73009,-3.58924 -0.50462,-0.45943 -0.72087,0.0288 -0.23069,0.45941 -0.31719,1.46441 -0.0866,1.32085 -0.0432,2.35454 0.0432,1.005 0.27393,1.95256 0.14418,0.66044 0.34602,1.26342 0.20184,0.603 0.50462,1.11986 0.30276,0.51684 0.70645,0.91884 0.4181,0.40199 0.98039,0.66041 z m -4.21708,-23.05737 q -0.49019,-0.77526 -1.23991,-1.32083 -0.73529,-0.54558 -1.55709,-0.804 -0.63437,-0.2009 -1.34083,0.20091 -0.69204,0.40199 -1.19664,1.17728 -0.74972,1.29213 -1.32641,2.92884 -0.56229,1.60798 -0.95156,3.41696 -0.38927,1.809 -0.59112,3.73284 -0.20184,1.89512 -0.21626,3.73283 -0.0145,1.83769 0.1586,3.5031 0.17301,1.66541 0.51903,2.98625 0.21626,0.80401 0.59111,1.43572 0.37485,0.63173 0.76413,1.0337 0.47577,0.48816 1.05248,0.71783 0.57669,0.25844 1.12455,0.37329 0.82181,0.17239 1.45617,-0.1437 0.63437,-0.28711 1.21108,-1.17723 0.85062,-1.49313 1.42733,-3.6467 0.59111,-2.15354 0.92271,-4.56551 0.34602,-2.44072 0.43253,-4.88141 0.0866,-2.4694 -0.0721,-4.56553 -0.11533,-1.26341 -0.37485,-2.23969 -0.2451,-1.00497 -0.79296,-1.89513 z m -2.32122,2.8714 q 0.28835,0.17241 0.4181,1.20599 0.14418,1.00502 0.14418,2.44071 0,1.40699 -0.11533,3.04368 -0.11533,1.60799 -0.30278,2.95754 -0.21626,1.63671 -0.51902,3.0437 -0.28836,1.37828 -0.61995,2.32583 -0.33161,0.94757 -0.66321,1.407 -0.33161,0.45943 -0.63437,0.25843 -0.3316,-0.2009 -0.50461,-1.09116 -0.17301,-0.89013 -0.20184,-2.12481 -0.0288,-1.26342 0.0577,-2.69913 0.0866,-1.46442 0.28835,-2.81399 0.20184,-1.37825 0.51903,-2.84265 0.33159,-1.49314 0.70645,-2.69915 0.37486,-1.206 0.74971,-1.8951 0.37485,-0.71787 0.67762,-0.51689 z m -13.37221,13.09362 q 0.37485,0.91886 0.83621,1.83768 0.46135,0.89015 0.92272,1.72286 0.46136,0.83271 0.89389,1.52187 0.43252,0.68911 0.76412,1.14853 0.50461,0.60299 0.87946,0.66043 0.38928,0.0859 0.70646,-0.0861 0.25952,-0.0861 0.43253,-0.14355 0.18742,-0.0861 0.44694,-0.48812 0.21627,-0.31586 0.2451,-0.603 0.0288,-0.28714 -0.25952,-0.7753 -0.36043,-0.57427 -0.77854,-1.34953 -0.40369,-0.7753 -0.8218,-1.60801 -0.41811,-0.83271 -0.82179,-1.6654 -0.38928,-0.83271 -0.72087,-1.57928 1.61475,-1.43571 2.76815,-3.10112 1.16782,-1.6654 1.67243,-3.64668 0.33161,-1.23471 0.14417,-3.15856 -0.23067,-1.80896 -0.64878,-3.04367 -0.4037,-1.26342 -0.9083,-2.35456 -0.63437,-1.2347 -1.48501,-1.49313 -0.83621,-0.28714 -1.78776,0.0576 -0.93715,0.31586 -1.91753,1.09112 -0.96598,0.77529 -1.85985,1.57928 -0.18743,0.20092 -0.36044,1.03371 -0.17301,0.80399 -0.31718,2.06741 -0.14417,1.23472 -0.27393,2.81399 -0.12976,1.55056 -0.2451,3.21596 -0.10089,1.66542 -0.18742,3.33082 -0.10089,1.66544 -0.17301,3.12985 -0.0721,1.4357 -0.11533,2.58423 -0.0577,1.14859 -0.0866,1.75159 -0.0289,0.74657 0.0721,1.20601 0.10089,0.43069 0.37485,0.74653 0.27393,0.28715 0.5767,0.40199 0.30277,0.1149 0.69205,0.31587 0.33158,0.14355 0.44692,0 0.12976,-0.14369 0.20185,-0.60299 0.15858,-1.55055 0.31718,-3.15857 0.17301,-1.60798 0.37485,-3.3595 z m 1.54266,-11.65792 q 0.56229,-0.54555 1.0669,-0.74655 0.50461,-0.2009 0.92272,-0.2009 0.85063,0 1.02364,0.80398 0.0866,0.48814 -0.14417,1.37827 -0.23068,0.89014 -0.74971,1.89513 -0.51903,0.97629 -1.29757,1.95256 -0.76413,0.94756 -1.75894,1.60797 0.27394,-1.89511 0.49019,-3.56053 0.21627,-1.66542 0.44694,-3.12984 z m -11.71421,12.20349 q 0.86505,-0.45943 1.74454,-1.09114 0.89387,-0.66043 1.70126,-1.46442 0.80738,-0.80398 1.48502,-1.72285 0.69203,-0.91883 1.18222,-1.89512 0.30279,-0.60299 0.54788,-1.23471 0.2595,-0.6317 0.4181,-1.32084 0.17301,-0.68911 0.21626,-1.46442 0.0577,-0.77529 -0.0432,-1.66542 -0.23068,-1.80896 -0.64879,-3.04367 -0.40367,-1.26343 -0.89388,-2.35457 -0.4181,-0.80398 -0.99482,-1.11984 -0.56228,-0.34456 -1.22549,-0.31584 -0.66321,0.0288 -1.38408,0.37326 -0.70648,0.31586 -1.41292,0.83271 -0.70646,0.48816 -1.36968,1.11987 -0.6632,0.60299 -1.21107,1.17726 -0.14417,0.14355 -0.25953,1.43571 -0.10088,1.26341 -0.18742,3.15853 -0.0866,1.89516 -0.17301,4.13485 -0.0865,2.23969 -0.173,4.3358 -0.0866,2.0674 -0.18744,3.70411 -0.11533,1.63671 -0.24508,2.32584 -0.0866,0.74658 0.0577,1.206 0.12975,0.45943 0.40368,0.77527 0.27395,0.28715 0.61997,0.45943 0.36044,0.20091 0.73528,0.402 0.37488,0.14369 0.50462,0 0.12975,-0.14355 0.20184,-0.603 0.11534,-1.4644 0.25954,-2.98627 0.15858,-1.52184 0.33159,-3.15853 z m 0.61996,-5.39827 q 0.21627,-1.80894 0.41811,-3.47438 0.21625,-1.6654 0.44694,-3.21595 0.53345,-0.45944 1.03806,-0.68914 0.51905,-0.22969 0.92273,-0.25845 0.41811,-0.0288 0.67762,0.17239 0.27394,0.17241 0.31718,0.51685 0.11534,0.63173 -0.0865,1.55055 -0.20185,0.91888 -0.69204,1.92388 -0.4902,0.97626 -1.25433,1.92384 -0.76412,0.91882 -1.78776,1.55055 z"
       inkscape:export-xdpi="300.05954"
       inkscape:export-ydpi="300.05954" />
    <g
       aria-label="{"
       transform="matrix(0.95512079,0,0,1.046988,-23.118306,178.07297)"
       id="text1636-0"
       style="font-style:normal;font-weight:normal;font-size:66.2015px;line-height:1.25;font-family:sans-serif;fill:#fed140;fill-opacity:1;stroke:none;stroke-width:1.65504"
       inkscape:export-xdpi="300.05954"
       inkscape:export-ydpi="300.05954">
      <path
         id="path1638-6"
         style="font-style:normal;font-variant:normal;font-weight:normal;font-stretch:normal;font-family:'Snake mix';-inkscape-font-specification:'Snake mix';fill:#fed140;fill-opacity:1;stroke-width:2.46516"
         d="m 46.886146,-60.171926 c 0.03493,0 0.0524,0.01476 0.0524,0.04426 l 0.366709,-0.04426 h 5.448257 c 0.139699,0 0.331786,0.01476 0.576259,0.04426 0.03493,-0.0295 0.174629,-0.04426 0.419095,-0.04426 h 0.157171 l 0.314322,0.04426 c 0.06985,-0.0295 0.174624,-0.04426 0.314323,-0.04426 h 0.0524 c 0.03493,0 0.0524,0.01476 0.0524,0.04426 l 0.104775,-0.04426 h 31.903741 c 2.44473,0 4.121117,0.265508 5.02916,0.796521 v 0.04426 c -1.117592,1.003026 -1.938323,2.286309 -2.462194,3.849848 -0.419096,1.416037 -0.628645,2.817322 -0.628645,4.203857 v 0.08851 c 0,2.891073 0.820731,5.354385 2.462195,7.389936 1.047741,1.062028 2.147869,1.593042 3.300385,1.593042 0.977892,0 1.955786,-0.427762 2.933679,-1.283284 l 0.104775,0.04426 c 0,0.737519 -0.261936,1.740544 -0.785807,3.009077 -0.59372,1.091528 -1.431914,2.065053 -2.51458,2.920574 -1.990709,1.357035 -3.998881,2.035551 -6.024517,2.035551 H 85.18116 c -1.222367,0 -1.955785,0.01476 -2.200258,0.04426 -0.873119,-0.0295 -1.763698,-0.04426 -2.671741,-0.04426 H 71.66529 c -0.03493,0 -0.33179,-0.265507 -0.890582,-0.79652 v -4.203856 c 0,-0.147505 -0.01746,-0.35401 -0.05238,-0.619518 0.03493,-0.059 0.05238,-0.132759 0.05238,-0.221254 0,-0.0295 -0.01746,-0.118003 -0.05238,-0.265507 l 0.05238,-0.177005 -0.05238,-0.177004 0.05238,-0.265506 -0.05238,-0.08851 0.05238,-0.221257 -0.05238,-0.08851 c 0.03493,-0.059 0.05238,-0.118002 0.05238,-0.177005 0,-0.059 -0.01746,-0.08851 -0.05238,-0.08851 l 0.05238,-0.221254 v -5.088881 c 0,-0.059 -0.01746,-0.118002 -0.05238,-0.177002 0.03493,-0.147505 0.08731,-0.221257 0.157153,-0.221257 1.292215,0.678517 2.601893,1.504538 3.929033,2.478063 0.977893,0.590014 2.165332,1.224281 3.562321,1.902798 2.339957,1.091528 4.103655,1.873298 5.291097,2.34531 3.492473,1.386535 5.395872,2.079803 5.710193,2.079803 h 0.104776 c 0.558795,-0.08851 0.838193,-0.324512 0.838193,-0.708017 v -0.221257 c -0.104776,-0.265507 -0.349253,-0.472013 -0.733419,-0.619515 -4.086193,-1.386536 -7.945374,-2.994326 -11.577547,-4.823374 -1.39699,-0.708018 -2.898752,-1.637291 -4.50529,-2.78782 -2.235183,-1.357036 -4.156043,-2.035552 -5.762581,-2.035552 h -0.261935 c -2.025635,0 -4.330668,0.914522 -6.915097,2.743569 -2.025633,1.416037 -4.470366,2.714069 -7.334192,3.8941 -1.816087,0.826021 -4.487828,1.873298 -8.015227,3.141831 -0.31432,0.177003 -0.471483,0.398259 -0.471483,0.663766 0,0.38351 0.296861,0.634266 0.890581,0.752269 h 0.104776 c 0.628644,-0.147504 2.165333,-0.693268 4.610064,-1.637291 3.387699,-1.298034 6.65316,-2.832073 9.796385,-4.602118 2.444732,-1.711044 4.138582,-2.699319 5.081549,-2.964826 0,0.0295 0.01747,0.04426 0.0524,0.04426 -0.06985,0.236006 -0.104776,0.442512 -0.104776,0.619515 v 0.442512 c 0,0.08851 0.01747,0.162259 0.0524,0.221255 l -0.0524,0.08851 c 0,0.0295 0.01747,0.04425 0.0524,0.04425 l -0.0524,0.309756 v 9.425491 l 0.0524,0.265508 c -0.03493,0.059 -0.0524,0.132761 -0.0524,0.221254 v 0.70802 l 0.0524,0.221254 c -0.768343,0.560514 -1.152516,0.870272 -1.152516,0.929273 l -0.261936,-0.04426 h -1.362065 c -0.104776,0 -0.157169,0.01476 -0.157169,0.04426 l -0.261935,-0.04426 H 47.148123 c -2.724128,0 -5.16886,-1.032526 -7.334193,-3.097578 -1.39699,-1.652043 -2.095484,-3.274584 -2.095484,-4.867624 l 0.104776,-0.04426 c 0.838193,0.737518 1.501764,1.106278 1.990709,1.106278 0,0.059 0.209549,0.118003 0.628647,0.177004 0.03493,0 0.0524,-0.01476 0.0524,-0.04426 l 0.314322,0.04426 c 1.39699,0 2.706667,-0.826021 3.929033,-2.478064 1.187441,-1.976549 1.78116,-4.012101 1.78116,-6.106655 v -0.79652 c 0,-0.944024 -0.08731,-1.755294 -0.261935,-2.433811 h 0.0524 l -0.471483,-1.637292 c -0.488947,-1.445538 -1.292215,-2.684569 -2.409807,-3.717095 0.349246,-0.206506 0.995355,-0.413011 1.938322,-0.619516 0.139699,0 0.646109,-0.059 1.519226,-0.177004 z m -6.391225,3.761345 h 0.576258 c 0.873117,0 1.69385,0.722768 2.462193,2.168306 0.384171,1.032526 0.576258,2.006051 0.576258,2.920575 0,2.448561 -0.820731,4.130104 -2.462193,5.044628 -0.279397,0.08851 -0.523872,0.13276 -0.733419,0.13276 h -0.261935 c -1.466839,0 -2.497119,-1.283283 -3.090839,-3.849848 -0.06985,-0.590015 -0.104776,-0.988276 -0.104776,-1.194779 0,-2.330561 0.733419,-3.982603 2.200256,-4.956128 0.314323,-0.177005 0.593722,-0.265507 0.838195,-0.265507 z m 53.69677,0 H 94.5584 c 1.047742,0 1.938324,0.885022 2.671743,2.655067 0.279397,0.76702 0.419096,1.563542 0.419096,2.389563 v 0.221255 c -0.139699,2.566566 -0.960429,4.174356 -2.462193,4.823372 0,0.08851 -0.261935,0.147508 -0.785807,0.177006 h -0.209548 c -1.222365,0 -2.165334,-0.958776 -2.828903,-2.876324 -0.209548,-0.619516 -0.314322,-1.357035 -0.314322,-2.212556 v -0.13276 c 0,-2.183057 0.715956,-3.776097 2.147871,-4.779123 0.349247,-0.177005 0.681032,-0.265507 0.995354,-0.265507 z m -26.350708,7.124433 h 0.209548 c 0.523871,0 0.838193,0.265507 0.942968,0.79652 v 8.142207 c 0,0.0295 -0.01747,0.04426 -0.0524,0.04426 l 0.0524,0.08851 v 4.557865 c 3.841722,3.245083 5.762581,4.882375 5.762581,4.911876 0.06985,0.118002 0.104775,0.250756 0.104775,0.39826 -0.03493,0.560514 -0.349252,0.840772 -0.942967,0.840772 h -0.104776 c -0.384172,0 -1.100128,-0.501514 -2.14787,-1.504539 -1.152516,-0.914524 -2.409807,-1.932298 -3.771872,-3.053328 -3.946493,2.920575 -6.041977,4.425113 -6.28645,4.513615 l -0.366711,0.04426 h -0.104776 c -0.593719,-0.118004 -0.890579,-0.33926 -0.890579,-0.663768 v -0.354009 c 0,-0.236006 0.506408,-0.678518 1.519226,-1.327534 l 5.186322,-3.805597 v -2.743569 c 0,-0.147504 0.01747,-0.35401 0.0524,-0.619517 -0.03493,-0.059 -0.0524,-0.132761 -0.0524,-0.221256 0,-0.0295 0.01747,-0.118003 0.0524,-0.265505 l -0.0524,-0.309759 c 0,-0.118003 0.01747,-0.177005 0.0524,-0.177005 -0.03493,-0.324507 -0.0524,-0.560514 -0.0524,-0.708017 v -7.566944 c 0,-0.678517 0.29686,-1.017774 0.890579,-1.017774 z"
         sodipodi:nodetypes="cccscsccssccscccsscsccccsscsscscscccccccsccscccccscsccccsscccsccccccssccccccsccccsccsccccccccssccccccccscscsscscsccscscccscsscsccscscccccsscccccssccscscccsssc" />
    </g>
    <text
       xml:space="preserve"
       style="font-style:normal;font-variant:normal;font-weight:normal;font-stretch:normal;font-size:10.8981px;line-height:1.25;font-family:'Ubuntu Condensed';-inkscape-font-specification:'Ubuntu Condensed, ';fill:#fed140;fill-opacity:1;stroke:none;stroke-width:0.272455"
       x="53.618797"
       y="207.74504"
       id="text1896-4"
       transform="scale(1.4025566,0.71298372)"
       inkscape:export-xdpi="300.05954"
       inkscape:export-ydpi="300.05954"><tspan
         sodipodi:role="line"
         id="tspan1894-6"
         x="53.618797"
         y="207.74504"
         style="font-style:normal;font-variant:normal;font-weight:normal;font-stretch:normal;font-family:'Ubuntu Condensed';-inkscape-font-specification:'Ubuntu Condensed, ';fill:#fed140;fill-opacity:1;stroke-width:0.272455">Aplicações web Python </tspan></text>
  </g>
</svg>
